<?xml version="1.0" encoding="UTF-8"?>
<svg width="240px" height="36px" viewBox="0 0 240 36" version="1.1" xmlns="http://www.w3.org/2000/svg" xmlns:xlink="http://www.w3.org/1999/xlink">
    <!-- Generator: Sketch 42 (36781) - http://www.bohemiancoding.com/sketch -->
    <title>Group</title>
    <desc>Created with Sketch.</desc>
    <defs></defs>
    <g id="Page-1" stroke="none" stroke-width="1" fill="none" fill-rule="evenodd">
        <g id="Group">
            <path d="M84.6715885,17.1676249 L90.7334399,35.5948695 L93.9211377,35.5948695 L98.3107543,21.2216188 L102.648113,35.5948695 L105.809683,35.5948695 L111.923791,17.1676249 L108.736094,17.1676249 L104.320348,32.1463423 L99.8784745,17.1676249 L96.8475487,17.1676249 L92.4318035,32.1463423 L87.9899296,17.1676249 L84.6715885,17.1676249 Z M114.066342,17.1676249 L114.066342,35.5948695 L117.149525,35.5948695 L117.149525,17.1676249 L114.066342,17.1676249 Z M119.788521,17.1676249 L119.788521,19.9580363 L125.562957,19.9580363 L125.562957,35.5948695 L128.64614,35.5948695 L128.64614,19.9580363 L134.446705,19.9580363 L134.446705,17.1676249 L119.788521,17.1676249 Z M137.085701,17.1676249 L137.085701,35.5948695 L140.168884,35.5948695 L140.168884,27.9607253 L149.86262,27.9607253 L149.86262,35.5948695 L152.945803,35.5948695 L152.945803,17.1676249 L149.86262,17.1676249 L149.86262,25.170314 L140.168884,25.170314 L140.168884,17.1676249 L137.085701,17.1676249 Z M176.48338,24.6964706 L176.48338,0.275984078 L158.404518,0.275984078 L158.404518,5.62427245 L170.523866,5.62427245 L170.523866,24.4946484 C170.523866,28.127448 168.670908,30.0952145 165.515871,30.0952145 C163.112033,30.0952145 160.357636,28.7329146 158.053958,26.2101371 L155.249481,30.7511367 C157.853639,33.9802919 161.359235,35.8471473 165.565951,35.8471473 C172.326744,35.8471473 176.48338,31.8107032 176.48338,24.6964706 Z M195.563842,8.55069438 C204.928793,8.55069438 208.734869,14.7062716 208.03375,24.3937373 L187.901609,24.3937373 C188.803048,28.5310924 191.958085,31.1043255 196.164801,31.1043255 C199.069438,31.1043255 201.723676,29.9943034 203.676794,27.9760814 L206.731671,31.2556922 C204.127513,34.1316586 200.321437,35.7966917 195.714082,35.7966917 C187.50097,35.7966917 182.092335,30.2970367 182.092335,22.2241486 C182.092335,14.100805 187.651209,8.60114993 195.563842,8.55069438 Z M187.801449,20.155471 L203.025754,20.155471 C202.825435,15.8162937 199.970877,13.192605 195.613922,13.192605 C191.407206,13.192605 188.402409,15.8667492 187.801449,20.155471 Z M229.618208,8.55069438 C225.111013,8.55069438 221.705576,10.165272 219.802538,13.8989828 L219.802538,8.75251659 L214.043344,8.75251659 L214.043344,35.5948695 L219.802538,35.5948695 L219.802538,21.3159487 C220.203178,17.128138 222.957575,14.0503494 227.364611,13.9998939 C231.371007,13.9998939 233.774844,16.4722158 233.774844,20.5086599 L233.774844,35.5948695 L239.534039,35.5948695 L239.534039,18.8940823 C239.534039,12.4862273 235.828122,8.55069438 229.618208,8.55069438 Z" id="WITHJen" fill="#333333"></path>
            <path d="M0.04626952,0.275984078 L0.04626952,5.62427245 L11.1139387,5.62427245 L11.1139387,35.5948695 L17.0233729,35.5948695 L17.0233729,5.62427245 L28.141122,5.62427245 L28.141122,0.275984078 L0.04626952,0.275984078 Z M43.8161467,8.55069438 C53.1810975,8.55069438 56.9871738,14.7062716 56.2860545,24.3937373 L36.1539142,24.3937373 C37.0553533,28.5310924 40.2103902,31.1043255 44.4171061,31.1043255 C47.3217433,31.1043255 49.9759807,29.9943034 51.9290988,27.9760814 L54.9839758,31.2556922 C52.3798183,34.1316586 48.573742,35.7966917 43.9663866,35.7966917 C35.7532746,35.7966917 30.3446399,30.2970367 30.3446399,22.2241486 C30.3446399,14.100805 35.9035144,8.60114993 43.8161467,8.55069438 Z M36.0537543,20.155471 L51.2780594,20.155471 C51.0777396,15.8162937 48.2231824,13.192605 43.8662267,13.192605 C39.6595108,13.192605 36.6547137,15.8667492 36.0537543,20.155471 Z M83.9301875,35.5948695 L78.271153,35.5948695 L78.271153,32.3152587 C76.3681149,34.6866696 73.3132378,35.8471473 69.4570816,35.8471473 C63.6978873,35.8471473 60.0921308,32.2648032 60.0921308,27.5219814 C60.0921308,22.627793 63.7479672,19.4995489 70.1582009,19.4490933 L78.221073,19.4490933 L78.221073,18.6418045 C78.221073,15.2612826 76.0676352,13.2430606 71.8609193,13.2430606 C69.3068418,13.2430606 66.6526044,14.1512605 63.998367,15.9676603 L61.6446093,11.9312163 C65.3505256,9.71117205 68.054843,8.55069438 73.112918,8.55069438 C79.9738713,8.55069438 83.8300276,12.0825829 83.8801075,17.9858824 L83.9301875,35.5948695 Z M70.6590004,31.2556922 C74.7655564,31.2556922 77.9205933,29.0861035 78.221073,26.1596816 L78.221073,23.6873596 L71.0095601,23.6873596 C67.2535638,23.6873596 65.5007655,24.6964706 65.5007655,27.2697037 C65.5007655,29.6915701 67.4538836,31.2556922 70.6590004,31.2556922 Z" id="Tea" fill="#67C105"></path>
        </g>
    </g>
</svg>